<!DOCTYPE svg PUBLIC "-//W3C//DTD SVG 1.1//EN" "http://www.w3.org/Graphics/SVG/1.1/DTD/svg11.dtd">

<!-- Uploaded to: SVG Repo, www.svgrepo.com, Transformed by: SVG Repo Mixer Tools -->
<svg fill="#FFFFFF" version="1.1" id="Layer_1" xmlns="http://www.w3.org/2000/svg" xmlns:xlink="http://www.w3.org/1999/xlink" viewBox="0 0 512 512" xml:space="preserve" width="800px" height="800px" stroke="#000000">

<g id="SVGRepo_bgCarrier" stroke-width="0"/>

<g id="SVGRepo_tracerCarrier" stroke-linecap="round" stroke-linejoin="round"/>

<g id="SVGRepo_iconCarrier"> <g> <g> <path d="M493.526,0H18.474C8.288,0,0,8.288,0,18.474v475.052C0,503.712,8.288,512,18.474,512h475.052 c10.186,0,18.474-8.288,18.474-18.474V18.474C512,8.288,503.712,0,493.526,0z M496.165,493.526c0,1.43-1.209,2.639-2.639,2.639 H18.474c-1.43,0-2.639-1.209-2.639-2.639V18.474c0-1.43,1.209-2.639,2.639-2.639h475.052c1.43,0,2.639,1.209,2.639,2.639V493.526z "/> </g> </g> <g> <g> <path d="M409.072,75.896l-58.383,58.381l11.198,11.197l38.954-38.955c-3.47,84.287-37.873,162.987-97.8,222.914 c-63.267,63.269-147.458,98.113-237.061,98.113v15.835c93.833,0,182-36.49,248.26-102.75 c63.058-63.058,99.128-145.962,102.47-234.705l39.547,39.549l11.198-11.197L409.072,75.896z"/> </g> </g> <g> <g> <path d="M129.32,137.237c-27.649,0-50.144,22.495-50.144,50.144s22.495,50.144,50.144,50.144s50.144-22.495,50.144-50.144 S156.969,137.237,129.32,137.237z M129.32,221.691c-18.919,0-34.309-15.391-34.309-34.309c0-18.919,15.391-34.309,34.309-34.309 c18.919,0,34.309,15.391,34.309,34.309C163.629,206.3,148.238,221.691,129.32,221.691z"/> </g> </g> <g> <g> <path d="M393.237,348.371c-27.649,0-50.144,22.495-50.144,50.144c0,27.649,22.495,50.144,50.144,50.144 s50.144-22.495,50.144-50.144C443.381,370.866,420.886,348.371,393.237,348.371z M393.237,432.825 c-18.919,0-34.309-15.391-34.309-34.309c0-18.919,15.391-34.309,34.309-34.309s34.309,15.391,34.309,34.309 C427.546,417.434,412.156,432.825,393.237,432.825z"/> </g> </g> <g> <g> <polygon points="298.548,155.656 287.349,144.459 255.625,176.184 223.9,144.459 212.702,155.656 244.427,187.381 212.702,219.106 223.9,230.304 255.625,198.579 287.349,230.304 298.548,219.106 266.823,187.381 "/> </g> </g> <g> <g> <polygon points="166.589,276.684 155.39,265.485 123.667,297.21 91.941,265.485 80.743,276.684 112.468,308.409 80.743,340.133 91.941,351.331 123.667,319.606 155.39,351.331 166.589,340.133 134.864,308.409 "/> </g> </g> <g> <g> <rect x="81.814" y="47.505" width="237.526" height="15.835"/> </g> </g> <g> <g> <rect x="81.814" y="84.454" width="31.67" height="15.835"/> </g> </g> <g> <g> <rect x="129.32" y="84.454" width="31.67" height="15.835"/> </g> </g> <g> <g> <rect x="250.722" y="84.454" width="68.619" height="15.835"/> </g> </g> </g>

</svg>